<?xml version="1.0" standalone="no"?>
<!DOCTYPE svg PUBLIC "-//W3C//DTD SVG 1.1//EN" "http://www.w3.org/Graphics/SVG/1.1/DTD/svg11.dtd" >
<svg>
<metadata>
Created by FontForge 20110222 at Tue Dec  3 00:50:13 2013
 By Orthosie Webhosting
splekta (c) (Stephen Bird). 2008. All Rights Reserved
</metadata>
<defs>
<font id="splektaRegular" horiz-adv-x="1099" >
  <font-face 
    font-family="splektaRegular"
    font-weight="400"
    font-stretch="normal"
    units-per-em="2048"
    panose-1="2 1 7 3 6 1 1 1 1 4"
    ascent="1638"
    descent="-410"
    x-height="904"
    cap-height="1200"
    bbox="-240 -435 1861 1577"
    underline-thickness="150"
    underline-position="-142"
    unicode-range="U+0020-F002"
  />
<missing-glyph horiz-adv-x="1024" 
d="M100 0v1434h824v-1434h-824zM150 50h724v1334h-724v-1334zM325 1148q31 28 58 43q53 30 112 30q92 0 148 -47.5t56 -127.5q0 -49 -23 -98.5t-87 -129.5q-63 -80 -99 -132t-36 -99q0 -38 24 -133h-32q-35 97 -35 148q0 76 81.5 218t81.5 217q0 57 -33 90t-91 33
q-38 0 -69 -17q-26 -15 -56 -40v45zM389 334l57 58q11 10 20 10q10 0 22 -11l56 -60q9 -11 9 -20q0 -11 -10 -22l-56 -62q-14 -14 -21 -14q-11 0 -20 10l-61 71q-7 9 -7 18q0 10 11 22z" />
    <glyph glyph-name=".notdef" horiz-adv-x="1024" 
d="M100 0v1434h824v-1434h-824zM150 50h724v1334h-724v-1334zM325 1148q31 28 58 43q53 30 112 30q92 0 148 -47.5t56 -127.5q0 -49 -23 -98.5t-87 -129.5q-63 -80 -99 -132t-36 -99q0 -38 24 -133h-32q-35 97 -35 148q0 76 81.5 218t81.5 217q0 57 -33 90t-91 33
q-38 0 -69 -17q-26 -15 -56 -40v45zM389 334l57 58q11 10 20 10q10 0 22 -11l56 -60q9 -11 9 -20q0 -11 -10 -22l-56 -62q-14 -14 -21 -14q-11 0 -20 10l-61 71q-7 9 -7 18q0 10 11 22z" />
    <glyph glyph-name=".null" horiz-adv-x="0" 
 />
    <glyph glyph-name="nonmarkingreturn" horiz-adv-x="508" 
 />
    <glyph glyph-name="space" unicode=" " horiz-adv-x="508" 
 />
    <glyph glyph-name="space" unicode="&#xa0;" horiz-adv-x="508" 
 />
    <glyph glyph-name="exclam" unicode="!" horiz-adv-x="401" 
d="M30 346l-30 854h238l-30 -854h-178zM119 253q119 0 119 -126q0 -127 -119 -127t-119 127q0 126 119 126z" />
    <glyph glyph-name="quotedbl" unicode="&#x22;" horiz-adv-x="755" 
d="M139 1203q8 1 16 1q112 0 112 -199v-24q-7 -219 -262 -219h-12q132 64 132 140q0 19 -9 40h-5q-107 0 -107 136q0 126 119 126q8 0 16 -1zM472 1203q8 1 16 1q112 0 112 -199v-24q-7 -219 -262 -219h-12q132 64 132 140q0 19 -9 40h-5q-107 0 -107 136q0 126 119 126
q8 0 16 -1z" />
    <glyph glyph-name="dollar" unicode="$" horiz-adv-x="1199" 
d="M605 478v-287q166 11 189 138q-10 98 -189 149zM445 1005q-164 -8 -173 -138q9 -85 173 -139v277zM445 511q-158 37 -286 109q-128 64 -142 222v6q0 242 301 339q72 19 127 25v85h160v-89q244 -36 418 -240v-4l-224 -140q-84 115 -194 157v-293q4 0 8 -1q160 -34 277 -95
q143 -73 160 -236v-7q0 -244 -302 -341q-74 -19 -143 -25v-91h-160v93q-273 32 -445 249l240 126q74 -118 205 -154v305z" />
    <glyph glyph-name="percent" unicode="%" horiz-adv-x="1152" 
d="M268 -2h-225l685 1203h225zM246 1208q65 0 137 -41q104 -76 104 -189v-15q0 -94 -82 -170q-77 -56 -157 -56h-8q-88 0 -166 65q-73 69 -73 172q0 126 117 200q65 34 128 34zM175 977v-9q0 -55 41 -83q14 -8 28 -8q38 0 60 46q9 25 9 41v14q0 52 -40 81q-17 8 -29 8
q-35 0 -59 -42q-10 -26 -10 -48zM758 464q65 0 137 -41q104 -76 104 -189v-15q0 -94 -82 -170q-77 -56 -157 -56h-8q-88 0 -166 65q-73 69 -73 172q0 126 117 200q65 34 128 34zM687 233v-9q0 -55 41 -83q14 -8 28 -8q38 0 60 46q9 25 9 41v14q0 52 -40 81q-17 8 -29 8
q-35 0 -59 -42q-10 -26 -10 -48z" />
    <glyph glyph-name="ampersand" unicode="&#x26;" horiz-adv-x="1245" 
d="M386 533q-133 -10 -134 -156q10 -180 195 -180q97 0 190 58q-16 55 -18 279zM767 72q-125 -75 -287 -84h-4q-70 0 -178 28q-298 101 -298 369q24 159 146 245q-105 95 -116 254q29 242 280 312q112 19 152 19h4q173 -10 304 -94l-156 -150q-77 48 -151 48
q-185 0 -195 -130q13 -160 172 -170l180 2l-1 197h238v-204h205v-184h-205l1 -154q0 -41 29 -116.5t175 -78.5v-188h-9q-179 0 -286 79z" />
    <glyph glyph-name="quotesingle" unicode="'" horiz-adv-x="401" 
d="M139 1203q8 1 16 1q112 0 112 -199v-24q-7 -219 -262 -219h-12q132 64 132 140q0 19 -9 40h-5q-107 0 -107 136q0 126 119 126q8 0 16 -1z" />
    <glyph glyph-name="parenleft" unicode="(" horiz-adv-x="698" 
d="M83 248.5q-80 169.5 -82 356.5q2 186 82 356t221 297h270q-191 -163 -272 -301q-80 -123 -88 -345v-15q8 -222 88 -344q81 -138 272 -301h-270q-141 127 -221 296.5z" />
    <glyph glyph-name="parenright" unicode=")" horiz-adv-x="701" 
d="M271 -48h-270q191 163 272 301q80 122 88 344v15q-8 222 -88 345q-81 138 -272 301h270q141 -127 221 -297t82 -356q-2 -187 -82 -356.5t-221 -296.5z" />
    <glyph glyph-name="asterisk" unicode="*" horiz-adv-x="755" 
d="M283 933q-4 71 -37 130q-37 66 -37 84q0 32 23.5 51.5t62.5 19.5q37 0 61.5 -18t24.5 -47q0 -21 -36 -89q-33 -61 -37 -130q66 25 113 75q51 55 69 61q11 3 21 3q18 0 35 -10q26 -17 38 -53q6 -19 6 -36q0 -15 -4 -28q-10 -30 -38 -38q-6 -2 -19 -2q-25 0 -76 9
q-28 5 -55 5q-41 0 -81 -11q44 -55 105 -83q68 -32 79 -47q13 -18 13 -38q0 -9 -2 -17q-8 -30 -39 -53q-29 -22 -59 -22q-1 0 -1 1q-31 0 -48 23q-12 17 -22 94q-10 67 -47 125q-38 -58 -46 -124q-9 -75 -20 -90q-19 -25 -49 -27h-5q-28 0 -57 21q-30 21 -39 51q-4 10 -4 20
q0 17 11 32q13 17 83 51q61 29 105 82q-41 11 -80 11q-27 0 -53 -5q-54 -11 -78 -11q-9 0 -14 2q-30 9 -41 38q-6 13 -6 29q0 17 6 36q11 35 36 53q17 12 34 12q9 0 18 -3q20 -6 74 -62q47 -49 112 -75z" />
    <glyph glyph-name="plus" unicode="+" horiz-adv-x="898" 
d="M284 445h-279v177h279v278l1 1h176v-279h278l1 -1v-176h-279v-314h-177v314z" />
    <glyph glyph-name="comma" unicode="," horiz-adv-x="401" 
d="M142 245q8 1 16 1q112 0 112 -199v-24q-7 -219 -262 -219h-12q132 64 132 140q0 19 -9 40h-5q-107 0 -107 136q0 126 119 126q8 0 16 -1z" />
    <glyph glyph-name="hyphen" unicode="-" horiz-adv-x="902" 
d="M5 445v177h734l1 -1v-176h-735z" />
    <glyph glyph-name="hyphen" unicode="&#xad;" horiz-adv-x="902" 
d="M5 445v177h734l1 -1v-176h-735z" />
    <glyph glyph-name="period" unicode="." horiz-adv-x="401" 
d="M129 274q129 0 129 -137t-129 -137t-129 137t129 137z" />
    <glyph glyph-name="slash" unicode="/" horiz-adv-x="905" 
d="M233 -50h-220l541 1301h220z" />
    <glyph glyph-name="zero" unicode="0" horiz-adv-x="1299" 
d="M556 1216q146 0 311 -109q235 -199 235 -493v-40q0 -247 -184 -446q-178 -148 -358 -148h-18q-199 0 -375 170q-167 182 -167 453q0 330 265 523q149 90 291 90zM267 616v-36q0 -234 170 -353q57 -35 113 -35h3q154 0 246 196q36 105 36 175v58q0 221 -163 345
q-70 38 -119 38q-148 0 -244 -183q-42 -110 -42 -205z" />
    <glyph glyph-name="one" unicode="1" horiz-adv-x="802" 
d="M565 1200v-1200h-238v916l-216 -149l-121 173l333 260h242z" />
    <glyph glyph-name="two" unicode="2" horiz-adv-x="1149" 
d="M3 0q-2 32 -2 63q0 226 129 359q147 150 352.5 202t218.5 222q-10 160 -195 160q-169 0 -327 -178l-174 136q172 234 468 251h4q70 0 178 -28q298 -101 298 -349q-28 -187 -156.5 -282.5t-295 -135t-236.5 -213.5l658 1v-208h-920z" />
    <glyph glyph-name="three" unicode="3" horiz-adv-x="1145" 
d="M431 524v195h115q159 10 172 170q-10 130 -195 130q-139 0 -287 -167l-174 127q172 220 458 236h4q40 0 148 -26q298 -95 298 -308q-25 -156 -130 -251q122 -86 146 -245q0 -268 -298 -369q-108 -28 -178 -28h-4q-296 17 -468 251l174 136q158 -178 327 -178
q185 0 195 180q-1 146 -134 146h-5z" />
    <glyph glyph-name="four" unicode="4" horiz-adv-x="1149" 
d="M0 503l610 697h242v-724h161v-208h-161v-268h-238v268h-614v235zM614 476v430l-383 -430h383z" />
    <glyph glyph-name="five" unicode="5" horiz-adv-x="1159" 
d="M243 775q117 39 216 39q153 0 279 -71q213 -133 213 -327v-27q0 -162 -166 -294q-159 -98 -322 -98h-15q-179 0 -338 113q-69 67 -110 147l193 111q41 -122 167 -156q50 -18 97 -18h2q134 0 212 102q31 54 31 91v31q0 115 -139 179q-61 20 -104 20q-24 3 -47 3
q-112 0 -189 -65l-213 109l40 536h860v-215l-652 -2z" />
    <glyph glyph-name="six" unicode="6" horiz-adv-x="1199" 
d="M233 510v-10q0 -244 187 -295q50 -18 97 -18h2q134 0 212 102q31 54 31 91v31q0 115 -139 179q-61 20 -104 20q-19 2 -38 2q-128 0 -248 -102zM241 720q150 87 278 87q153 0 279 -71q213 -133 213 -327v-27q0 -162 -166 -294q-159 -98 -322 -98h-15q-179 0 -338 113
q-174 171 -174 424q0 40 4 82q0 328 250 520q152 89 318 89q130 0 297 -108q79 -65 123 -129l-180 -138q-41 72 -124 127q-79 37 -115 37q-11 1 -23 1q-203 0 -278 -175z" />
    <glyph glyph-name="seven" unicode="7" 
d="M910 1200v-213q-343 -444 -527 -989h-262q185 543 549 985h-670v217h910z" />
    <glyph glyph-name="eight" unicode="8" horiz-adv-x="1152" 
d="M583 499q-57 11 -109 11q-57 0 -110 -13q-101 -26 -120 -128q4 -73 20.5 -104.5t60 -55.5t134.5 -29q151 5 194.5 29t60 55.5t20.5 104.5q-33 106 -151 130zM933 979q17 -45 17 -96q-15 -156 -130 -251q142 -86 154 -238q2 -21 2 -40q0 -128 -69 -230q-79 -117 -375 -144
h-86q-296 27 -375 144q-69 102 -69 230q0 19 2 40q12 152 154 238q-115 95 -130 251q0 51 17 96l-3 2q4 6 9 11q50 130 225 199q108 26 178 26h10q130 0 238 -26q175 -69 225 -199q5 -5 9 -11zM359 732q57 -23 118 -23q59 0 121 21q127 42 132 129v14q0 75 -49 109
q-54 36 -221 47q-109 -11 -163 -47q-53 -36 -53 -117q0 -2 1 -4q1 -85 114 -129z" />
    <glyph glyph-name="nine" unicode="9" horiz-adv-x="1199" 
d="M778 688v10q0 244 -187 295q-50 18 -97 18h-2q-134 0 -212 -102q-31 -54 -31 -91v-31q0 -115 139 -179q61 -20 104 -20q19 -2 38 -2q128 0 248 102zM770 478q-150 -87 -278 -87q-153 0 -279 71q-213 133 -213 327v27q0 162 166 294q159 98 322 98h15q179 0 338 -113
q174 -171 174 -424q0 -40 -4 -82q0 -328 -250 -520q-152 -89 -318 -89q-130 0 -297 108q-79 65 -123 129l180 138q41 -72 124 -127q79 -37 115 -37q11 -1 23 -1q203 0 278 175z" />
    <glyph glyph-name="colon" unicode=":" horiz-adv-x="397" 
d="M129 274q129 0 129 -137t-129 -137t-129 137t129 137zM129 907q129 0 129 -137t-129 -137t-129 137t129 137z" />
    <glyph glyph-name="semicolon" unicode=";" horiz-adv-x="401" 
d="M129 907q129 0 129 -137t-129 -137t-129 137t129 137zM158 267q112 0 112 -199v-24q-7 -219 -262 -219h-12q132 64 132 140q0 19 -9 40h-5q-107 0 -107 136q0 126 119 126h32z" />
    <glyph glyph-name="semicolon" unicode="&#x37e;" horiz-adv-x="401" 
d="M129 907q129 0 129 -137t-129 -137t-129 137t129 137zM158 267q112 0 112 -199v-24q-7 -219 -262 -219h-12q132 64 132 140q0 19 -9 40h-5q-107 0 -107 136q0 126 119 126h32z" />
    <glyph glyph-name="equal" unicode="=" horiz-adv-x="945" 
d="M5 445v177h734l1 -1v-176h-735zM2 119v177h734l1 -1v-176h-735z" />
    <glyph glyph-name="question" unicode="?" 
d="M556 127q0 -127 -119 -127t-119 127q0 126 119 126t119 -126zM661 837q-10 169 -195 169q-149 -14 -271 -189l-195 133v4q171 247 433 261h4q70 0 178 -28q301 -97 301 -369v-6q-14 -178 -129 -256q-127 -77 -236 -77h-3l-30 -124h-179l-30 274q352 19 352 208z" />
    <glyph glyph-name="at" unicode="@" horiz-adv-x="1603" 
d="M887 471q-59 -26 -109 -46q-176 -43 -185 -123q17 -74 103 -74q105 0 195 60zM1124 252q20 -20 40 -20q31 0 63 47q51 76 51 187t-41 214.5t-115 181.5q-75 79 -173 122t-203 43q-108 0 -206.5 -43t-173.5 -122t-115 -181t-40 -215t40 -214t116 -181q78 -79 173 -121
q89 -39 215 -39h18l-1 -167q-20 -1 -40 -1q-157 0 -272 50q-130 55 -236 160q-106 104 -161.5 237.5t-55.5 282.5q0 148 55.5 283t159.5 238q102 104 238.5 160.5t286.5 56.5q145 0 280 -56.5t239 -160.5q102 -101 158.5 -238t56.5 -283q0 -147 -28.5 -227t-151.5 -173
q-74 -27 -129 -27q-32 0 -57 9q-71 23 -143 99l-63 -24q-117 -75 -200 -75h-2q-67 0 -140 19q-187 80 -187 224v13q6 106 73 166q85 48 203 78q206 45 215 122q-17 66 -103 66q-155 0 -221 -111l-119 102q86 171 317 171h3q66 0 139 -19q171 -75 184 -244q1 -341 53 -390z
" />
    <glyph glyph-name="A" unicode="A" horiz-adv-x="1349" 
d="M337 291l-118 -291h-219l493 1200h247l511 -1200h-271l-123 291h-520zM771 495l-180 440l-172 -440h352z" />
    <glyph glyph-name="B" unicode="B" 
d="M238 509v-307h206v3h17q229 0 229 121v6q1 12 1 23q0 124 -172 154h-281zM238 704h275q156 14 160 173q-43 116 -229 117h-206v-290zM909 945q4 -34 4 -66q0 -214 -192 -274q106 -5 193 -141q41 -65 41 -140q0 -84 -52 -182q-124 -142 -414 -142h-489v1200h518
q335 0 391 -255z" />
    <glyph glyph-name="C" unicode="C" horiz-adv-x="1252" 
d="M1055 127q-204 -147 -412 -147h-19q-229 0 -432 169q-192 181 -192 450q0 328 304 520q171 89 335 89q169 0 357 -108q89 -65 138 -129l-202 -138q-47 72 -140 127q-89 37 -152 37q-187 0 -309 -181q-53 -110 -53 -204v-36q0 -232 215 -351q73 -34 144 -34h3
q186 0 289 171l214 -133q-35 -53 -88 -102z" />
    <glyph glyph-name="D" unicode="D" horiz-adv-x="1195" 
d="M238 993v-792h176v3h2q71 0 144 34q215 116 215 343v35q0 92 -53 200q-122 176 -308 177h-176zM749 1112q304 -188 304 -509q0 -263 -192 -440q-201 -163 -426 -163h-435v1200l440 -1q152 -7 309 -87z" />
    <glyph glyph-name="E" unicode="E" horiz-adv-x="998" 
d="M238 696h560v-191h-560v-303h607v-202h-845v1200h845v-202h-607v-302z" />
    <glyph glyph-name="F" unicode="F" horiz-adv-x="998" 
d="M238 696h560v-191h-560v-505h-238v1200h845v-202h-607v-302z" />
    <glyph glyph-name="G" unicode="G" horiz-adv-x="1303" 
d="M1133 0h-176l-3 64q-154 -84 -330 -84q-229 0 -432 169q-192 181 -192 450q0 328 304 520q171 89 335 89q169 0 357 -108q89 -65 138 -129l-202 -138q-47 72 -140 127q-89 37 -152 37q-187 0 -309 -181q-53 -110 -53 -240q0 -232 215 -351q73 -34 144 -34h3
q250 17 300 217h-292v191h485v-599z" />
    <glyph glyph-name="H" unicode="H" horiz-adv-x="1252" 
d="M238 498v-498h-238v1200h238v-498h587v498h238v-1200h-238v498h-587z" />
    <glyph glyph-name="I" unicode="I" horiz-adv-x="401" 
d="M0 0v1200h251v-1200h-251z" />
    <glyph glyph-name="J" unicode="J" horiz-adv-x="1145" 
d="M691 369v838h261v-884h-3q-15 -223 -291 -315q-107 -28 -204 -28h-4q-279 0 -450 254l210 126q107 -170 273 -170q186 0 208 179z" />
    <glyph glyph-name="K" unicode="K" 
d="M238 480v-480h-238v1200h238v-422l449 422h304l-510 -516l580 -684h-306l-457 544z" />
    <glyph glyph-name="L" unicode="L" horiz-adv-x="998" 
d="M0 0v1200h238v-998h607v-202h-845z" />
    <glyph glyph-name="M" unicode="M" horiz-adv-x="1399" 
d="M599 270l-389 568l2 -835l-212 -3v1200h248l362 -530l359 530h248v-1200h-238v838z" />
    <glyph glyph-name="N" unicode="N" horiz-adv-x="1252" 
d="M238 838v-838h-238v1200h248l577 -848v848h238v-1200h-248z" />
    <glyph glyph-name="O" unicode="O" horiz-adv-x="1403" 
d="M639 1208q169 0 357 -108q271 -198 271 -490v-40q0 -245 -212 -443q-204 -147 -412 -147h-19q-229 0 -432 169q-192 181 -192 450q0 328 304 520q171 89 335 89zM278 612v-36q0 -232 215 -351q73 -34 144 -34h3q196 0 312 194q46 105 46 174v58q0 220 -206 343
q-89 37 -152 37q-187 0 -309 -181q-53 -110 -53 -204z" />
    <glyph glyph-name="P" unicode="P" horiz-adv-x="1045" 
d="M238 654h275q156 14 160 173q-43 166 -229 167h-206v-340zM238 459v-257l1 -202h-239v1200h515q338 0 394 -305q1 -23 1 -44q0 -234 -119 -310q-128 -82 -299 -82h-254z" />
    <glyph glyph-name="Q" unicode="Q" horiz-adv-x="1399" 
d="M939 365q7 10 13 20q46 105 46 174v58q0 220 -206 343q-89 37 -152 37q-187 0 -309 -181q-53 -110 -53 -204v-36q0 -232 215 -351q73 -34 144 -34h3q82 0 151 34l-252 278h275zM943 57q-149 -77 -300 -77h-19q-229 0 -432 169q-192 181 -192 450q0 328 304 520
q171 89 335 89q169 0 357 -108q271 -198 271 -490v-40q0 -213 -160 -390l253 -280h-275z" />
    <glyph glyph-name="R" unicode="R" horiz-adv-x="1095" 
d="M777 563q-107 -75 -183 -75q-8 0 -15 1l378 -489h-292l-361 489h-66l1 -489h-239v1200h500q381 -7 416 -348q-22 -208 -139 -289zM238 684h275q156 14 160 163q-43 146 -229 147h-206v-310z" />
    <glyph glyph-name="S" unicode="S" horiz-adv-x="1199" 
d="M159 620q-128 64 -142 222v6q0 242 301 339q108 28 178 28h4q312 0 523 -247v-4l-224 -140q-133 182 -332 182q-185 0 -195 -139q13 -121 341 -180q160 -34 277 -95q143 -73 160 -236v-7q0 -244 -302 -341q-107 -28 -204 -28h-4q-339 0 -540 254l240 126
q107 -170 333 -170q196 0 221 139q-13 134 -344 181q-161 37 -291 110z" />
    <glyph glyph-name="T" unicode="T" horiz-adv-x="1052" 
d="M572 998v-998h-238v998h-334v202h905v-203h-268v1h-65z" />
    <glyph glyph-name="U" unicode="U" horiz-adv-x="1299" 
d="M0 593v607h259l-1 -627q0 -232 195 -351q73 -34 124 -34h3q176 0 292 194q46 105 46 174v644h235l1 -636v-8q0 -237 -179 -432q-204 -147 -392 -147q-228 0 -411 169q-171 180 -172 447z" />
    <glyph glyph-name="V" unicode="V" horiz-adv-x="1353" 
d="M758 0h-247l-511 1200h261l389 -935l372 935h229z" />
    <glyph glyph-name="W" unicode="W" horiz-adv-x="1954" 
d="M945 736l-240 -736h-230l-475 1200h263l344 -885l276 885h176l256 -860l333 860h213l-459 -1203h-229z" />
    <glyph glyph-name="X" unicode="X" horiz-adv-x="1202" 
d="M849 -2l-300 423l-286 -423h-262l410 612l-411 591h298l263 -372l252 372h263l-377 -561l447 -642h-297z" />
    <glyph glyph-name="Y" unicode="Y" horiz-adv-x="1356" 
d="M512 429h-1l-511 771h281l369 -546l352 546h249l-501 -771v-429h-238v429z" />
    <glyph glyph-name="Z" unicode="Z" horiz-adv-x="1152" 
d="M667 970h-667v228h970v-239l-675 -751h675v-208h-970v219z" />
    <glyph glyph-name="a" unicode="a" horiz-adv-x="948" 
d="M561 440q-38 -39 -131 -51q-185 -18 -195 -136q19 -82 114 -82q116 0 216 67zM585 63q-129 -83 -221 -83h-3q-73 0 -154 21q-207 89 -207 247v15q7 147 114 213q94 53 263 68q156 38 166 124q-19 72 -114 72q-160 0 -223 -122l-176 113v3q129 186 374 186h3q73 0 154 -21
q227 -83 227 -270q8 -602 51 -629h-244z" />
    <glyph glyph-name="b" unicode="b" horiz-adv-x="998" 
d="M238 647v-391q30 -29 76 -52.5t94 -23.5h2q134 0 213 132q31 72 31 119q0 189 -140 273q-61 25 -104 25q-82 -2 -127 -30.5t-45 -51.5zM238 52v-52h-238v1250h238v-399q109 72 195 72q129 0 252 -82q207 -151 207 -404q0 -187 -162 -338q-135 -112 -308 -112
q-87 0 -184 65z" />
    <glyph glyph-name="c" unicode="c" horiz-adv-x="955" 
d="M0 440v33q5 242 232 385q130 68 255 68q129 0 272 -82q73 -54 111 -106l-188 -119q-25 47 -94 88q-61 25 -104 25q-127 0 -210 -123q-36 -75 -36 -139v-27q0 -64 36 -139q83 -123 210 -123q43 0 104 25q69 41 94 88l188 -119q-38 -52 -111 -106q-143 -82 -272 -82
q-125 0 -255 68q-227 143 -232 385z" />
    <glyph glyph-name="d" unicode="d" horiz-adv-x="1052" 
d="M482 729q-43 0 -104 -25q-140 -84 -140 -273q0 -47 31 -119q79 -132 213 -132h2q48 0 94 23.5t76 52.5v391q0 23 -45 51.5t-127 30.5zM470 -13q-173 0 -308 112q-162 151 -162 338q0 253 207 404q123 82 252 82q86 0 195 -72v399h238v-1250h-238v52q-97 -65 -184 -65z
" />
    <glyph glyph-name="e" unicode="e" 
d="M480 732q-124 -2 -206 -123q-13 -28 -22 -54h431q-8 25 -21 51q-5 7 -9 13h-1q-1 2 -3 5q-79 105 -167 105h-2v3zM251 363q8 -29 23 -59q83 -123 210 -123q16 -2 32 -2q137 0 204 120l170 -124q-38 -52 -111 -106q-143 -82 -292 -82q-125 0 -255 68q-227 143 -232 385v33
q5 242 232 385q130 68 255 68q99 0 242 -82q73 -54 111 -106q97 -148 97 -328q0 -23 -2 -47h-684z" />
    <glyph glyph-name="f" unicode="f" horiz-adv-x="701" 
d="M359 1250h220v-180q-27 1 -50 1q-110 0 -151 -26q-39 -26 -39 -92q0 -20 3 -44h229v-192h-232v-717h-238v704h-1v13h-100v192h100l10 109q31 205 249 232z" />
    <glyph glyph-name="g" unicode="g" horiz-adv-x="1052" 
d="M242 565q0 -114 97 -182q39 -16 78 -16h1q107 0 170 94q25 52 25 114q0 107 -112 158q-48 17 -83 17q-101 0 -147 -68q-29 -54 -29 -117zM339 -84q-47 -12 -85 -34q-36 -29 -36 -54v-11q0 -52 146 -83q50 -9 68 -9h2q154 0 233 52q31 17 31 36v15q0 60 -140 93
q-81 9 -124 9q-25 0 -71 -9v-8q-12 1 -24 3zM697 834q9 18 9 42q0 16 -4 35h229q-3 -130 -106 -215q27 -57 27 -147q0 -146 -146 -264q-169 -87 -282 -87h-13q-35 0 -69 1q-53 -5 -95 -17q-36 -14 -36 -36q40 -43 106 -55q53 -10 80 -10q7 0 12 1q26 3 48 3q129 0 272 -46
q207 -85 207 -226q0 -96 -162 -180q-155 -63 -318 -63q-175 0 -330 72q-146 78 -146 182q0 98 114 168q-86 57 -91 153q11 119 100 163q-100 116 -100 269q0 185 209 299q98 45 179 45q15 0 30 -2q116 0 245 -64q16 -10 31 -21z" />
    <glyph glyph-name="h" unicode="h" horiz-adv-x="1048" 
d="M444 923q136 -7 252 -100q189 -151 189 -358v-465h-238v462q0 144 -132 224q-49 28 -103 28h-20q-87 0 -154 -67v-647h-238v1250h238v-408q117 81 206 81z" />
    <glyph glyph-name="i" unicode="i" horiz-adv-x="408" 
d="M238 904v-904h-238v904h238zM119 997q-119 0 -119 127q0 126 119 126t119 -126q0 -127 -119 -127z" />
    <glyph glyph-name="j" unicode="j" horiz-adv-x="408" 
d="M119 997q-119 0 -119 127q0 126 119 126t119 -126q0 -127 -119 -127zM0 24v880h238v-904q-7 -180 -164 -327q-148 -107 -300 -107h-14v188q130 3 207 132q31 72 31 138h2z" />
    <glyph glyph-name="k" unicode="k" horiz-adv-x="948" 
d="M238 325v-325h-238v1250l238 -1v-654l326 309h275v-2l-385 -370l438 -529v-3h-284l-309 383z" />
    <glyph glyph-name="l" unicode="l" horiz-adv-x="397" 
d="M238 1250v-1250h-238v1250h238z" />
    <glyph glyph-name="m" unicode="m" horiz-adv-x="1650" 
d="M238 597v-597h-238v904h238l2 -81q116 100 204 100q136 -7 252 -100q46 -36 80 -96q107 192 318 196q136 -7 242 -90q189 -161 189 -368v-465h-238v462q0 144 -102 214q-59 38 -113 38q-136 -24 -181 -174q-6 -40 -6 -75v-465h-238v462q0 144 -132 224q-49 28 -103 28
h-20q-86 0 -154 -117z" />
    <glyph glyph-name="n" unicode="n" horiz-adv-x="1045" 
d="M444 923q136 -7 252 -100q189 -151 189 -358v-465h-238v462q0 144 -132 224q-49 28 -103 28h-20q-87 0 -154 -107v-607h-238v904h238v-72q117 91 206 91z" />
    <glyph glyph-name="o" unicode="o" 
d="M487 926q129 0 272 -82q207 -151 207 -374v-30q0 -187 -162 -338q-155 -112 -314 -112h-14q-175 0 -330 129q-146 138 -146 343q0 250 232 396q130 68 255 68zM238 470v-25q0 -158 146 -239q50 -23 98 -23h2q134 0 213 132q31 72 31 119v39q0 150 -140 234
q-61 25 -104 25q-127 0 -210 -123q-36 -75 -36 -139z" />
    <glyph glyph-name="p" unicode="p" horiz-adv-x="998" 
d="M414 182q43 0 104 25q140 84 140 273q0 47 -31 119q-79 132 -213 132h-2q-48 0 -94 -23.5t-76 -52.5v-391q0 -23 45 -51.5t127 -30.5zM426 924q173 0 308 -112q162 -151 162 -338q0 -253 -207 -404q-123 -82 -252 -82q-86 0 -195 72v-399h-238v1250h238v-52q97 65 184 65
z" />
    <glyph glyph-name="q" unicode="q" horiz-adv-x="998" 
d="M650 264v391q-30 29 -76 52.5t-94 23.5h-2q-134 0 -213 -132q-31 -72 -31 -119q0 -189 140 -273q61 -25 104 -25q82 2 127 30.5t45 51.5zM650 859v52h238v-1251l-238 1v399q-109 -72 -195 -72q-129 0 -252 82q-207 151 -207 404q0 187 162 338q135 112 308 112
q87 0 184 -65z" />
    <glyph glyph-name="r" unicode="r" horiz-adv-x="748" 
d="M515 686q-49 28 -103 28h-20q-87 0 -154 -67v-647h-238v904h238v-62q117 81 206 81q111 -6 210 -69l-117 -183q-10 8 -22 15z" />
    <glyph glyph-name="s" unicode="s" horiz-adv-x="952" 
d="M122 454q-102 66 -102 185v5q0 182 227 255q81 21 134 21h3q235 0 394 -186v-3l-176 -113q-93 122 -243 122q-75 0 -94 -82q10 -76 185 -115q140 -31 238 -87q110 -63 110 -183v-5q0 -184 -227 -257q-81 -21 -154 -21h-3q-255 0 -414 188v3l196 103q73 -113 243 -113
q95 0 114 82q-10 78 -185 116q-140 31 -246 85z" />
    <glyph glyph-name="t" unicode="t" horiz-adv-x="701" 
d="M70 720h-100v184h100v204h238v-204h233v-184h-233v-322h2q0 -66 29 -141.5t179 -78.5v-188q-23 -2 -45 -2q-168 0 -289 109q-107 97 -114 277v346z" />
    <glyph glyph-name="u" unicode="u" horiz-adv-x="1041" 
d="M439 -19q-136 7 -252 100q-189 151 -189 358v465h238v-462q0 -144 132 -224q49 -28 103 -28h20q87 0 154 67v647h238v-904h-238v62q-117 -81 -206 -81z" />
    <glyph glyph-name="v" unicode="v" horiz-adv-x="1102" 
d="M629 0h-247l-382 904h247l274 -649l261 649h218z" />
    <glyph glyph-name="w" unicode="w" horiz-adv-x="1700" 
d="M816 593l-215 -593h-248l-353 904h248l253 -649l221 649h202l254 -649l221 649h221l-342 -904h-239z" />
    <glyph glyph-name="x" unicode="x" horiz-adv-x="995" 
d="M235 907l202 -274l188 274l257 -3l-313 -464l310 -440h-226l-199 272l-185 -272h-266l314 465l-311 442h229z" />
    <glyph glyph-name="y" unicode="y" horiz-adv-x="1101" 
d="M393 -21l-393 925h247l274 -659l251 659h228l-493 -1173q-82 -104 -154 -137q-63 -29 -191 -29q-19 0 -40 1v188q16 -1 31 -1q78 0 136 35q68 62 104 191z" />
    <glyph glyph-name="z" unicode="z" horiz-adv-x="902" 
d="M778 904l-2 -187l-500 -529h505v-188h-785l1 187l539 530h-540v187h782z" />
    <glyph glyph-name="bar" unicode="|" horiz-adv-x="358" 
d="M5 1577h188v-1995h-188v1995z" />
    <glyph glyph-name="asciitilde" unicode="~" horiz-adv-x="1014" 
d="M923 961v-196q-44 -91 -85 -123t-81 -32q-42 0 -124 61t-123 61q-36 0 -75.5 -35t-90.5 -141v196q45 92 86 124.5t80 32.5q44 0 126 -62t121 -62q36 0 75.5 35t90.5 141z" />
    <glyph glyph-name="exclamdown" unicode="&#xa1;" horiz-adv-x="401" 
d="M208 854l30 -854h-238l30 854h178zM119 947q-119 0 -119 127q0 126 119 126t119 -126q0 -127 -119 -127z" />
    <glyph glyph-name="sterling" unicode="&#xa3;" horiz-adv-x="1045" 
d="M0 452h-122v146h122v23h1q8 313 256 499q146 89 284 89q142 0 302 -108q74 -65 116 -129l-170 -138q-40 72 -118 127q-76 37 -129 37q-158 0 -261 -181q-43 -105 -43 -196v-23h306v-146h-306v-250h721v-202h-959v452z" />
    <glyph glyph-name="currency" unicode="&#xa4;" horiz-adv-x="1014" 
d="M350 560q41 -40 99 -57q29 -8 58 -8t58 8q58 17 99 57q40 41 57 99q9 29 9 58t-9 58q-17 58 -57 99q-41 40 -100 57q-29 8 -58 8t-58 -9q-58 -17 -98 -56q-39 -40 -56 -98q-10 -30 -10 -60q0 -28 9 -56q16 -59 57 -100zM240 903l-118 118l80 81l118 -118q44 30 99 46
q44 14 89 14q41 0 83 -12q57 -17 102 -48l118 118l80 -81l-117 -117q31 -46 48 -102q12 -42 12 -85q0 -42 -12 -85q-17 -56 -48 -102l117 -117l-80 -81l-118 118q-45 -32 -101 -48q-42 -12 -85 -12q-42 0 -85 12q-57 16 -102 48l-118 -118l-80 81l118 117q-32 46 -48 103
q-12 42 -12 84q0 44 13 87q16 55 47 99z" />
    <glyph glyph-name="brokenbar" unicode="&#xa6;" horiz-adv-x="351" 
d="M193 509v-927h-188v927h188zM5 683v894h188v-894h-188z" />
    <glyph glyph-name="dieresis" unicode="&#xa8;" horiz-adv-x="1024" 
d="M229 1310q0 112 106 112q105 0 105 -112t-105 -112q-106 0 -106 112zM795 1310q0 112 106 112q105 0 105 -112t-105 -112q-106 0 -106 112z" />
    <glyph glyph-name="copyright" unicode="&#xa9;" horiz-adv-x="898" 
d="M397 1205q78 0 150.5 -30.5t128.5 -85.5q54 -55 84.5 -128.5t30.5 -151.5q0 -79 -30.5 -151.5t-87.5 -128.5q-56 -57 -128 -86t-152 -29q-78 0 -149 30t-128 86q-56 56 -86 127.5t-30 151.5q0 79 30 151.5t85 128.5q55 55 128.5 85.5t153.5 30.5zM184 1032
q-42 -45 -64.5 -102.5t-22.5 -120.5q0 -64 22.5 -120.5t64.5 -101.5q44 -45 97.5 -68.5t112.5 -23.5q61 0 115 23.5t97 67.5q42 45 65 102.5t23 120.5q0 62 -23 120.5t-64 102.5q-42 44 -96.5 68t-114.5 24t-115 -24t-97 -68zM152 801v17q3 130 125 207q69 36 136 36
q70 0 146 -44q40 -29 60 -56l-101 -64q-13 25 -50 47q-33 13 -56 13q-68 0 -113 -66q-19 -40 -19 -74v-15q0 -34 19 -74q45 -66 113 -66q23 0 56 13q37 22 50 47l101 -64q-20 -27 -60 -56q-76 -44 -146 -44q-67 0 -136 36q-122 77 -125 207z" />
    <glyph glyph-name="registered" unicode="&#xae;" horiz-adv-x="898" 
d="M397 1205q78 0 150.5 -30.5t128.5 -85.5q54 -55 84.5 -128.5t30.5 -151.5q0 -79 -30.5 -151.5t-87.5 -128.5q-56 -57 -128 -86t-152 -29q-78 0 -149 30t-128 86q-56 56 -86 127.5t-30 151.5q0 79 30 151.5t85 128.5q55 55 128.5 85.5t153.5 30.5zM184 1032
q-42 -45 -64.5 -102.5t-22.5 -120.5q0 -64 22.5 -120.5t64.5 -101.5q44 -45 97.5 -68.5t112.5 -23.5q61 0 115 23.5t97 67.5q42 45 65 102.5t23 120.5q0 62 -23 120.5t-64 102.5q-42 44 -96.5 68t-114.5 24t-115 -24t-97 -68zM509 796q-41 -28 -69 -28h-6l144 -187h-111
l-138 187h-25v-187h-91v458h191q145 -2 159 -133q-9 -79 -54 -110zM312 842h105q60 5 62 62q-17 56 -88 57h-79v-119z" />
    <glyph glyph-name="degree" unicode="&#xb0;" horiz-adv-x="694" 
d="M282 1068q-55 0 -94.5 -39t-39.5 -95q0 -55 39 -93.5t95 -38.5q55 0 93.5 38.5t38.5 93.5q0 56 -38.5 95t-93.5 39zM282 1213q115 0 196 -81.5t81 -196.5q0 -114 -82 -196t-197 -82q-117 0 -197 81t-80 197t81.5 197t197.5 81z" />
    <glyph glyph-name="acute" unicode="&#xb4;" horiz-adv-x="777" 
d="M473 1444l52 -151l-475 -82l-22 108z" />
    <glyph glyph-name="onehalf" unicode="&#xbd;" horiz-adv-x="601" 
d="M308 1195v-520h-107v389l-73 -65l-45 83l124 113h101zM37 0q-1 14 -1 28q0 95 56 151q63 63 146.5 85t88.5 94q-3 55 -50 55q-11 0 -25 -3q-72 0 -139 -75l-75 73q74 99 200 107h2q30 0 98 -9q106 -46 106 -151q-13 -79 -68 -123.5t-126 -61.5t-81 -74l261 1v-97h-393z
M4 549v94h493l1 -1v-93h-494z" />
    <glyph glyph-name="questiondown" unicode="&#xbf;" horiz-adv-x="1013" 
d="M360 1089q0 126 119 126t119 -126q0 -127 -119 -127t-119 127zM255 378q10 -169 195 -169q149 14 271 189l195 -133v-4q-171 -247 -433 -261h-4q-70 0 -178 28q-301 97 -301 369v6q14 178 129 256q127 77 236 77h3l30 124h179l30 -274q-352 -19 -352 -208z" />
    <glyph glyph-name="Agrave" unicode="&#xc0;" horiz-adv-x="1349" 
d="M909 1369l-28 -108l-613 82l67 151zM337 291l-118 -291h-219l493 1200h247l511 -1200h-271l-123 291h-520zM771 495l-180 440l-172 -440h352z" />
    <glyph glyph-name="Aacute" unicode="&#xc1;" horiz-adv-x="1353" 
d="M842 1494l67 -151l-613 -82l-28 108zM337 291l-118 -291h-219l493 1200h247l511 -1200h-271l-123 291h-520zM771 495l-180 440l-172 -440h352z" />
    <glyph glyph-name="Acircumflex" unicode="&#xc2;" horiz-adv-x="1353" 
d="M337 291l-118 -291h-219l493 1200h247l511 -1200h-271l-123 291h-520zM771 495l-180 440l-172 -440h352zM586 1335l-294 -71l-16 108l319 125l1 -5l313 -123l-16 -108z" />
    <glyph glyph-name="Atilde" unicode="&#xc3;" horiz-adv-x="1342" 
d="M992 1516v-158q-56 -74 -108 -99.5t-102 -25.5q-53 0 -157 49t-156 49q-46 0 -95.5 -28.5t-114.5 -113.5v158q57 75 109 101t101 26q56 0 160 -50t153 -50q46 0 95.5 28.5t114.5 113.5zM337 291l-118 -291h-219l493 1200h247l511 -1200h-271l-123 291h-520zM771 495
l-180 440l-172 -440h352z" />
    <glyph glyph-name="Adieresis" unicode="&#xc4;" horiz-adv-x="1353" 
d="M337 291l-118 -291h-219l493 1200h247l511 -1200h-271l-123 291h-520zM771 495l-180 440l-172 -440h352zM219 1370q0 112 106 112q105 0 105 -112t-105 -112q-106 0 -106 112zM785 1370q0 112 106 112q105 0 105 -112t-105 -112q-106 0 -106 112z" />
    <glyph glyph-name="Aring" unicode="&#xc5;" horiz-adv-x="1345" 
d="M337 291l-118 -291h-219l493 1200h247l511 -1200h-271l-123 291h-520zM771 495l-180 440l-172 -440h352zM610 1520q40 0 85 -26q65 -47 65 -117v-10q0 -58 -50 -106q-49 -35 -99 -35h-4q-55 0 -104 41q-46 43 -46 107q0 79 73 125q41 21 80 21zM544 1376v-6q0 -36 39 -55
q13 -5 25 -5h1q35 0 56 30q8 17 8 28v9q0 34 -37 54q-16 5 -27 5q-33 0 -55 -28q-10 -17 -10 -32z" />
    <glyph glyph-name="AE" unicode="&#xc6;" horiz-adv-x="1396" 
d="M590 495v437l-171 -437h171zM590 291h-253l-118 -291h-219l493 1200h742v-202h-407v-302h360v-191h-360v-303h407v-202h-645v291z" />
    <glyph glyph-name="Ccedilla" unicode="&#xc7;" horiz-adv-x="1252" 
d="M669 -19l-33 -92q32 4 62 5q86 0 134 -40.5t48 -113.5q0 -76 -58.5 -120.5t-160.5 -44.5q-109 0 -189 32v116q85 -52 152 -52q66 0 94.5 21.5t28.5 46.5q0 45 -49 64q-40 16 -102 16q-16 0 -34 -2l45 163q-220 6 -415 169q-192 181 -192 450q0 328 304 520q171 89 335 89
q169 0 357 -108q89 -65 138 -129l-202 -138q-47 72 -140 127q-89 37 -152 37q-187 0 -309 -181q-53 -110 -53 -204v-36q0 -232 215 -351q73 -34 144 -34h3q186 0 289 171l214 -133q-35 -53 -88 -102q-191 -138 -386 -146z" />
    <glyph glyph-name="Egrave" unicode="&#xc8;" horiz-adv-x="998" 
d="M744 1376l-28 -108l-613 82l67 151zM238 696h560v-191h-560v-303h607v-202h-845v1200h845v-202h-607v-302z" />
    <glyph glyph-name="Eacute" unicode="&#xc9;" horiz-adv-x="998" 
d="M702 1494l67 -151l-613 -82l-28 108zM238 696h560v-191h-560v-303h607v-202h-845v1200h845v-202h-607v-302z" />
    <glyph glyph-name="Ecircumflex" unicode="&#xca;" horiz-adv-x="998" 
d="M238 696h560v-191h-560v-303h607v-202h-845v1200h845v-202h-607v-302zM426 1335l-294 -71l-16 108l319 125l1 -5l313 -123l-16 -108z" />
    <glyph glyph-name="Edieresis" unicode="&#xcb;" horiz-adv-x="998" 
d="M238 696h560v-191h-560v-303h607v-202h-845v1200h845v-202h-607v-302zM39 1370q0 112 106 112q105 0 105 -112t-105 -112q-106 0 -106 112zM605 1370q0 112 106 112q105 0 105 -112t-105 -112q-106 0 -106 112z" />
    <glyph glyph-name="Igrave" unicode="&#xcc;" horiz-adv-x="701" 
d="M655 1373l-28 -108l-613 82l67 151zM189 0v1200h251v-1200h-251z" />
    <glyph glyph-name="Iacute" unicode="&#xcd;" horiz-adv-x="701" 
d="M588 1498l67 -151l-613 -82l-28 108zM189 0v1200h251v-1200h-251z" />
    <glyph glyph-name="Icircumflex" unicode="&#xce;" horiz-adv-x="698" 
d="M314 1338l-294 -71l-16 108l319 125l1 -5l313 -123l-16 -108zM189 0v1200h251v-1200h-251z" />
    <glyph glyph-name="Idieresis" unicode="&#xcf;" horiz-adv-x="605" 
d="M0 1370q0 112 106 112q105 0 105 -112t-105 -112q-106 0 -106 112zM141 0v1165h251v-1165h-251zM316 1370q0 112 106 112q105 0 105 -112t-105 -112q-106 0 -106 112z" />
    <glyph glyph-name="Eth" unicode="&#xd0;" horiz-adv-x="1299" 
d="M125 688v512l440 -1q152 -7 309 -87q304 -188 304 -509q0 -263 -192 -440q-201 -163 -426 -163h-435v511h-125v177h125zM363 688h132l1 -1v-176h-133v-310h176v3h2q71 0 144 34q215 116 215 343v35q0 92 -53 200q-122 176 -308 177h-176v-305z" />
    <glyph glyph-name="Ntilde" unicode="&#xd1;" horiz-adv-x="1252" 
d="M790 1516v-158q-39 -74 -76 -99.5t-72 -25.5q-37 0 -110.5 49t-110.5 49q-32 0 -67 -28.5t-81 -113.5v158q40 75 77 101t71 26q40 0 113 -50t108 -50q32 0 67 28.5t81 113.5zM238 838v-838h-238v1200h248l577 -848v848h238v-1200h-248z" />
    <glyph glyph-name="Ograve" unicode="&#xd2;" horiz-adv-x="1399" 
d="M909 1369l-28 -108l-613 82l67 151zM639 1208q169 0 357 -108q271 -198 271 -490v-40q0 -245 -212 -443q-204 -147 -412 -147h-19q-229 0 -432 169q-192 181 -192 450q0 328 304 520q171 89 335 89zM278 612v-36q0 -232 215 -351q73 -34 144 -34h3q196 0 312 194
q46 105 46 174v58q0 220 -206 343q-89 37 -152 37q-187 0 -309 -181q-53 -110 -53 -204z" />
    <glyph glyph-name="Oacute" unicode="&#xd3;" horiz-adv-x="1396" 
d="M842 1494l67 -151l-613 -82l-28 108zM639 1208q169 0 357 -108q271 -198 271 -490v-40q0 -245 -212 -443q-204 -147 -412 -147h-19q-229 0 -432 169q-192 181 -192 450q0 328 304 520q171 89 335 89zM278 612v-36q0 -232 215 -351q73 -34 144 -34h3q196 0 312 194
q46 105 46 174v58q0 220 -206 343q-89 37 -152 37q-187 0 -309 -181q-53 -110 -53 -204z" />
    <glyph glyph-name="Ocircumflex" unicode="&#xd4;" horiz-adv-x="1399" 
d="M639 1208q169 0 357 -108q271 -198 271 -490v-40q0 -245 -212 -443q-204 -147 -412 -147h-19q-229 0 -432 169q-192 181 -192 450q0 328 304 520q171 89 335 89zM278 612v-36q0 -232 215 -351q73 -34 144 -34h3q196 0 312 194q46 105 46 174v58q0 220 -206 343
q-89 37 -152 37q-187 0 -309 -181q-53 -110 -53 -204zM634 1338l-294 -71l-16 108l319 125l1 -5l313 -123l-16 -108z" />
    <glyph glyph-name="Otilde" unicode="&#xd5;" horiz-adv-x="1396" 
d="M1000 1516v-158q-56 -74 -108 -99.5t-102 -25.5q-53 0 -157 49t-156 49q-46 0 -95.5 -28.5t-114.5 -113.5v158q57 75 109 101t101 26q56 0 160 -50t153 -50q46 0 95.5 28.5t114.5 113.5zM639 1208q169 0 357 -108q271 -198 271 -490v-40q0 -245 -212 -443
q-204 -147 -412 -147h-19q-229 0 -432 169q-192 181 -192 450q0 328 304 520q171 89 335 89zM274 612v-36q0 -232 215 -351q73 -34 144 -34h3q196 0 312 194q46 105 46 174v58q0 220 -206 343q-89 37 -152 37q-187 0 -309 -181q-53 -110 -53 -204z" />
    <glyph glyph-name="Odieresis" unicode="&#xd6;" horiz-adv-x="1399" 
d="M639 1208q169 0 357 -108q271 -198 271 -490v-40q0 -245 -212 -443q-204 -147 -412 -147h-19q-229 0 -432 169q-192 181 -192 450q0 328 304 520q171 89 335 89zM278 612v-36q0 -232 215 -351q73 -34 144 -34h3q196 0 312 194q46 105 46 174v58q0 220 -206 343
q-89 37 -152 37q-187 0 -309 -181q-53 -110 -53 -204zM239 1370q0 112 106 112q105 0 105 -112t-105 -112q-106 0 -106 112zM805 1370q0 112 106 112q105 0 105 -112t-105 -112q-106 0 -106 112z" />
    <glyph glyph-name="multiply" unicode="&#xd7;" horiz-adv-x="802" 
d="M328 328l-197 -197l-126 125l197 197l-196 197v1l125 125l197 -197l196 196h1l125 -124l-197 -198l222 -221l-126 -126z" />
    <glyph glyph-name="Oslash" unicode="&#xd8;" horiz-adv-x="1403" 
d="M484 230q5 -3 9 -5q73 -34 144 -34h3q196 0 312 194q46 105 46 174v58q0 107 -48 190zM320 392l461 572q-82 33 -141 33q-187 0 -309 -181q-53 -110 -53 -204v-36q0 -103 42 -184zM340 50l-41 -50h-295l151 187q-155 171 -155 412q0 328 304 520q171 89 335 89
q135 0 283 -69l50 62h295l-160 -198q160 -169 160 -393v-40q0 -245 -212 -443q-204 -147 -412 -147h-19q-148 0 -284 70z" />
    <glyph glyph-name="Ugrave" unicode="&#xd9;" horiz-adv-x="1349" 
d="M909 1369l-28 -108l-613 82l67 151zM0 593v607h259l-1 -627q0 -232 195 -351q73 -34 124 -34h3q176 0 292 194q46 105 46 174v644h235l1 -636v-8q0 -237 -179 -432q-204 -147 -392 -147q-228 0 -411 169q-171 180 -172 447z" />
    <glyph glyph-name="Uacute" unicode="&#xda;" horiz-adv-x="1360" 
d="M842 1494l67 -151l-613 -82l-28 108zM0 593v607h259l-1 -627q0 -232 195 -351q73 -34 124 -34h3q176 0 292 194q46 105 46 174v644h235l1 -636v-8q0 -237 -179 -432q-204 -147 -392 -147q-228 0 -411 169q-171 180 -172 447z" />
    <glyph glyph-name="Ucircumflex" unicode="&#xdb;" horiz-adv-x="1349" 
d="M0 593v607h259l-1 -627q0 -232 195 -351q73 -34 124 -34h3q176 0 292 194q46 105 46 174v644h235l1 -636v-8q0 -237 -179 -432q-204 -147 -392 -147q-228 0 -411 169q-171 180 -172 447zM574 1338l-294 -71l-16 108l319 125l1 -5l313 -123l-16 -108z" />
    <glyph glyph-name="Udieresis" unicode="&#xdc;" horiz-adv-x="1356" 
d="M0 573v628h259l-1 -647q0 -225 195 -340q73 -33 124 -33h3q176 0 292 188q46 102 46 169v663h235l1 -656v-8q0 -229 -179 -418q-204 -142 -392 -142q-228 0 -411 164q-171 174 -172 432zM189 1370q0 112 106 112q105 0 105 -112t-105 -112q-106 0 -106 112zM755 1370
q0 112 106 112q105 0 105 -112t-105 -112q-106 0 -106 112z" />
    <glyph glyph-name="Yacute" unicode="&#xdd;" horiz-adv-x="1403" 
d="M892 1494l67 -151l-613 -82l-28 108zM512 429h-1l-511 771h281l369 -546l352 546h249l-501 -771v-429h-238v429z" />
    <glyph glyph-name="Thorn" unicode="&#xde;" horiz-adv-x="1056" 
d="M250 229v-229h-250v1200h250v-230h265q338 0 394 -305q1 -23 1 -44q0 -234 -119 -310q-128 -82 -299 -82h-242zM250 424h263q156 14 160 173q-43 166 -229 167h-194v-340z" />
    <glyph glyph-name="germandbls" unicode="&#xdf;" horiz-adv-x="948" 
d="M465.5 786q90.5 55 90.5 120q-13 114 -156 114h-22q-128 0 -128 -142v-878h-250v900q0 300 380 300h21q332 0 377 -219q5 -29 5 -55q0 -123 -104 -198q-67 -49 -67 -94q0 -39 51 -74q110 -76 145 -168q15 -40 15 -85q0 -60 -26 -129q-138 -178 -428 -178h-6v205
q213 6 229 102q-8 65 -113 141q-105 74 -105 177v2q1 104 91.5 159z" />
    <glyph glyph-name="agrave" unicode="&#xe0;" horiz-adv-x="948" 
d="M561 440q-38 -39 -131 -51q-185 -18 -195 -136q19 -82 114 -82q116 0 216 67zM585 63q-129 -83 -221 -83h-3q-73 0 -154 21q-207 89 -207 247v15q7 147 114 213q94 53 263 68q156 38 166 124q-19 72 -114 72q-160 0 -223 -122l-176 113v3q129 186 374 186h3q73 0 154 -21
q227 -83 227 -270q8 -602 51 -629h-244zM744 1125l-28 -108l-613 82l67 151z" />
    <glyph glyph-name="aacute" unicode="&#xe1;" horiz-adv-x="948" 
d="M561 440q-38 -39 -131 -51q-185 -18 -195 -136q19 -82 114 -82q116 0 216 67zM585 63q-129 -83 -221 -83h-3q-73 0 -154 21q-207 89 -207 247v15q7 147 114 213q94 53 263 68q156 38 166 124q-19 72 -114 72q-160 0 -223 -122l-176 113v3q129 186 374 186h3q73 0 154 -21
q227 -83 227 -270q8 -602 51 -629h-244zM677 1250l67 -151l-613 -82l-28 108z" />
    <glyph glyph-name="acircumflex" unicode="&#xe2;" horiz-adv-x="952" 
d="M407 1084l-294 -71l-16 108l319 125l1 -5l313 -123l-16 -108zM561 440q-38 -39 -131 -51q-185 -18 -195 -136q19 -82 114 -82q116 0 216 67zM585 63q-129 -83 -221 -83h-3q-73 0 -154 21q-207 89 -207 247v15q7 147 114 213q94 53 263 68q156 38 166 124q-19 72 -114 72
q-160 0 -223 -122l-176 113v3q129 186 374 186h3q73 0 154 -21q227 -83 227 -270q8 -602 51 -629h-244z" />
    <glyph glyph-name="atilde" unicode="&#xe3;" horiz-adv-x="952" 
d="M561 440q-38 -39 -131 -51q-185 -18 -195 -136q19 -82 114 -82q116 0 216 67zM585 63q-129 -83 -221 -83h-3q-73 0 -154 21q-207 89 -207 247v15q7 147 114 213q94 53 263 68q156 38 166 124q-19 72 -114 72q-160 0 -223 -122l-176 113v3q129 186 374 186h3q73 0 154 -21
q227 -83 227 -270q8 -602 51 -629h-244zM786 1265v-158q-56 -74 -108 -99.5t-102 -25.5q-53 0 -157 49t-156 49q-46 0 -95.5 -28.5t-114.5 -113.5v158q57 75 109 101t101 26q56 0 160 -50t153 -50q46 0 95.5 28.5t114.5 113.5z" />
    <glyph glyph-name="adieresis" unicode="&#xe4;" horiz-adv-x="952" 
d="M561 440q-38 -39 -131 -51q-185 -18 -195 -136q19 -82 114 -82q116 0 216 67zM585 63q-129 -83 -221 -83h-3q-73 0 -154 21q-207 89 -207 247v15q7 147 114 213q94 53 263 68q156 38 166 124q-19 72 -114 72q-160 0 -223 -122l-176 113v3q129 186 374 186h3q73 0 154 -21
q227 -83 227 -270q8 -602 51 -629h-244zM51 1144q0 112 106 112q105 0 105 -112t-105 -112q-106 0 -106 112zM537 1144q0 112 106 112q105 0 105 -112t-105 -112q-106 0 -106 112z" />
    <glyph glyph-name="aring" unicode="&#xe5;" horiz-adv-x="952" 
d="M576 458q-38 -39 -131 -51q-185 -18 -195 -136q19 -82 114 -82q116 0 216 67zM585 63q-129 -83 -221 -83h-3q-73 0 -154 21q-207 89 -207 247v15q7 147 114 213q94 53 263 68q156 38 166 124q-19 72 -114 72q-160 0 -223 -122l-176 113v3q129 186 374 186h3q73 0 154 -21
q227 -83 227 -270q8 -602 51 -629h-244zM400 1290q40 0 85 -26q65 -47 65 -117v-10q0 -58 -50 -106q-49 -35 -99 -35h-4q-55 0 -104 41q-46 43 -46 107q0 79 73 125q41 21 80 21zM334 1146v-6q0 -36 39 -55q13 -5 25 -5h1q35 0 56 30q8 17 8 28v9q0 34 -37 54q-16 5 -27 5
q-33 0 -55 -28q-10 -17 -10 -32z" />
    <glyph glyph-name="ae" unicode="&#xe6;" horiz-adv-x="1546" 
d="M1002 732q-117 -2 -195 -123q-12 -28 -21 -54h387q-7 25 -19 51q-5 7 -9 13h-1q-1 2 -3 5q-74 105 -137 105h-2v3zM655 153l-102 -90q-122 -83 -209 -83h-3q-69 0 -145 21q-196 89 -196 248v14q7 147 108 213q89 53 249 68q147 38 156 124q-18 72 -107 72
q-151 0 -211 -122l-166 113v3q122 186 353 186h3q69 0 145 -21q104 -40 158 -105q35 34 79 64q123 68 241 68q74 0 209 -82q69 -54 105 -106q62 -81 82 -183l7 -62v-130h-626q8 -29 22 -59q78 -123 198 -123q16 -2 31 -2q108 0 155 95l178 -99q-36 -52 -105 -106
q-135 -82 -256 -82q-118 0 -241 68q-66 44 -112 98zM575 290q-25 68 -27 146l-3 22q-36 -39 -124 -51q-175 -18 -184 -136q18 -82 107 -82q110 0 232 95z" />
    <glyph glyph-name="ccedilla" unicode="&#xe7;" horiz-adv-x="995" 
d="M508 -12l-33 -92q32 4 62 5q86 0 134 -40.5t48 -113.5q0 -76 -58.5 -120.5t-160.5 -44.5q-109 0 -189 32v116q85 -52 152 -52q66 0 94.5 21.5t28.5 46.5q0 45 -49 64q-40 16 -102 16q-16 0 -34 -2l45 165q-105 9 -214 66q-227 143 -232 385v33q5 242 232 385
q130 68 255 68q129 0 272 -82q73 -54 111 -106l-188 -119q-25 47 -94 88q-61 25 -104 25q-127 0 -210 -123q-36 -75 -36 -139v-27q0 -64 36 -139q83 -123 210 -123q43 0 104 25q69 41 94 88l188 -119q-38 -52 -111 -106q-132 -75 -251 -81z" />
    <glyph glyph-name="egrave" unicode="&#xe8;" horiz-adv-x="1041" 
d="M788 1125l-28 -108l-613 82l67 151zM480 732q-124 -2 -206 -123q-13 -28 -22 -54h431q-8 25 -21 51q-5 7 -9 13h-1q-1 2 -3 5q-79 105 -167 105h-2v3zM251 363q8 -29 23 -59q83 -123 210 -123q20 -2 38 -2q130 0 180 95l188 -99q-38 -52 -111 -106q-143 -82 -292 -82
q-125 0 -255 68q-227 143 -232 385v33q5 242 232 385q130 68 255 68q99 0 242 -82q73 -54 111 -106q66 -81 87 -183l8 -62v-130h-684z" />
    <glyph glyph-name="eacute" unicode="&#xe9;" horiz-adv-x="1052" 
d="M721 1250l67 -151l-613 -82l-28 108zM480 732q-124 -2 -206 -123q-13 -28 -22 -54h431q-8 25 -21 51q-5 7 -9 13h-1q-1 2 -3 5q-79 105 -167 105h-2v3zM251 363q8 -29 23 -59q83 -123 210 -123q20 -2 38 -2q130 0 180 95l188 -99q-38 -52 -111 -106q-143 -82 -292 -82
q-125 0 -255 68q-227 143 -232 385v33q5 242 232 385q130 68 255 68q99 0 242 -82q73 -54 111 -106q66 -81 87 -183l8 -62v-130h-684z" />
    <glyph glyph-name="ecircumflex" unicode="&#xea;" horiz-adv-x="1048" 
d="M461 1091l-294 -71l-16 108l319 125l1 -5l313 -123l-16 -108zM480 732q-124 -2 -206 -123q-13 -28 -22 -54h431q-8 25 -21 51q-5 7 -9 13h-1q-1 2 -3 5q-79 105 -167 105h-2v3zM251 363q8 -29 23 -59q83 -123 210 -123q20 -2 38 -2q130 0 180 95l188 -99
q-38 -52 -111 -106q-143 -82 -292 -82q-125 0 -255 68q-227 143 -232 385v33q5 242 232 385q130 68 255 68q99 0 242 -82q73 -54 111 -106q66 -81 87 -183l8 -62v-130h-684z" />
    <glyph glyph-name="edieresis" unicode="&#xeb;" horiz-adv-x="1052" 
d="M131 1144q0 112 106 112q105 0 105 -112t-105 -112q-106 0 -106 112zM617 1144q0 112 106 112q105 0 105 -112t-105 -112q-106 0 -106 112zM480 732q-124 -2 -206 -123q-13 -28 -22 -54h431q-8 25 -21 51q-5 7 -9 13h-1q-1 2 -3 5q-79 105 -167 105h-2v3zM251 363
q8 -29 23 -59q83 -123 210 -123q20 -2 38 -2q130 0 180 95l188 -99q-38 -52 -111 -106q-143 -82 -292 -82q-125 0 -255 68q-227 143 -232 385v33q5 242 232 385q130 68 255 68q99 0 242 -82q73 -54 111 -106q66 -81 87 -183l8 -62v-130h-684z" />
    <glyph glyph-name="igrave" unicode="&#xec;" horiz-adv-x="551" 
d="M502 1131l-22 -108l-480 82l52 151zM370 904v-904h-238v904h238z" />
    <glyph glyph-name="iacute" unicode="&#xed;" horiz-adv-x="555" 
d="M450 1256l52 -151l-480 -82l-22 108zM370 904v-904h-238v904h238z" />
    <glyph glyph-name="icircumflex" unicode="&#xee;" horiz-adv-x="555" 
d="M247 1088l-230 -71l-13 108l250 125l1 -5l246 -123l-13 -108zM370 904v-904h-238v904h238z" />
    <glyph glyph-name="idieresis" unicode="&#xef;" horiz-adv-x="651" 
d="M398 904v-904h-238v904h238zM439 997q-119 0 -119 127q0 126 119 126t119 -126q0 -127 -119 -127zM119 997q-119 0 -119 127q0 126 119 126t119 -126q0 -127 -119 -127z" />
    <glyph glyph-name="eth" unicode="&#xf0;" 
d="M238 470v-25q0 -158 146 -239q50 -23 98 -23h2q134 0 213 132q31 72 31 119v39q0 150 -140 234q-61 25 -104 25q-127 0 -210 -123q-36 -75 -36 -139zM916 671q50 -92 50 -201v-30q0 -187 -162 -338q-155 -112 -314 -112h-14q-175 0 -330 129q-146 138 -146 343
q0 250 232 396q130 68 255 68q22 0 45 -2l-38 73l-136 -41l-41 92l130 40l-85 162h282l42 -89l136 41l1 -1l38 -87l-132 -46z" />
    <glyph glyph-name="ntilde" unicode="&#xf1;" horiz-adv-x="1045" 
d="M809 1265v-158q-56 -74 -108 -99.5t-102 -25.5q-53 0 -157 49t-156 49q-46 0 -95.5 -28.5t-114.5 -113.5v158q57 75 109 101t101 26q56 0 160 -50t153 -50q46 0 95.5 28.5t114.5 113.5zM444 923q136 -7 252 -100q189 -151 189 -358v-465h-238v462q0 144 -132 224
q-49 28 -103 28h-20q-87 0 -154 -107v-607h-238v904h238v-72q117 91 206 91z" />
    <glyph glyph-name="ograve" unicode="&#xf2;" 
d="M804 1125l-28 -108l-613 82l67 151zM487 926q129 0 272 -82q207 -151 207 -374v-30q0 -187 -162 -338q-155 -112 -314 -112h-14q-175 0 -330 129q-146 138 -146 343q0 250 232 396q130 68 255 68zM238 470v-25q0 -158 146 -239q50 -23 98 -23h2q134 0 213 132
q31 72 31 119v39q0 150 -140 234q-61 25 -104 25q-127 0 -210 -123q-36 -75 -36 -139z" />
    <glyph glyph-name="oacute" unicode="&#xf3;" 
d="M737 1250l67 -151l-613 -82l-28 108zM487 926q129 0 272 -82q207 -151 207 -374v-30q0 -187 -162 -338q-155 -112 -314 -112h-14q-175 0 -330 129q-146 138 -146 343q0 250 232 396q130 68 255 68zM238 470v-25q0 -158 146 -239q50 -23 98 -23h2q134 0 213 132
q31 72 31 119v39q0 150 -140 234q-61 25 -104 25q-127 0 -210 -123q-36 -75 -36 -139z" />
    <glyph glyph-name="ocircumflex" unicode="&#xf4;" horiz-adv-x="1095" 
d="M477 1087l-294 -71l-16 108l319 125l1 -5l313 -123l-16 -108zM487 926q129 0 272 -82q207 -151 207 -374v-30q0 -187 -162 -338q-155 -112 -314 -112h-14q-175 0 -330 129q-146 138 -146 343q0 250 232 396q130 68 255 68zM238 470v-25q0 -158 146 -239q50 -23 98 -23h2
q134 0 213 132q31 72 31 119v39q0 150 -140 234q-61 25 -104 25q-127 0 -210 -123q-36 -75 -36 -139z" />
    <glyph glyph-name="otilde" unicode="&#xf5;" horiz-adv-x="1102" 
d="M487 926q129 0 272 -82q207 -151 207 -374v-30q0 -187 -162 -338q-155 -112 -314 -112h-14q-175 0 -330 129q-146 138 -146 343q0 250 232 396q130 68 255 68zM238 470v-25q0 -158 146 -239q50 -23 98 -23h2q134 0 213 132q31 72 31 119v39q0 150 -140 234
q-61 25 -104 25q-127 0 -210 -123q-36 -75 -36 -139zM850 1288v-158q-56 -74 -108.5 -99.5t-102.5 -25.5q-53 0 -157 49t-156 49q-45 0 -95 -28.5t-114 -113.5v158q56 75 108 101t101 26q57 0 160.5 -50t152.5 -50q46 0 96 28.5t115 113.5z" />
    <glyph glyph-name="odieresis" unicode="&#xf6;" 
d="M487 926q129 0 272 -82q207 -151 207 -374v-30q0 -187 -162 -338q-155 -112 -314 -112h-14q-175 0 -330 129q-146 138 -146 343q0 250 232 396q130 68 255 68zM238 470v-25q0 -158 146 -239q50 -23 98 -23h2q134 0 213 132q31 72 31 119v39q0 150 -140 234
q-61 25 -104 25q-127 0 -210 -123q-36 -75 -36 -139zM131 1144q0 112 106 112q105 0 105 -112t-105 -112q-106 0 -106 112zM617 1144q0 112 106 112q105 0 105 -112t-105 -112q-106 0 -106 112z" />
    <glyph glyph-name="oslash" unicode="&#xf8;" 
d="M392 202q46 -19 90 -19h2q134 0 213 132q31 72 31 119v39q0 62 -24 113zM264 325l314 386q-55 21 -94 21q-127 0 -210 -123q-36 -75 -36 -139v-25q0 -67 26 -120zM262 42l-34 -42h-228l119 146q-119 131 -119 316q0 250 232 396q130 68 255 68q106 0 221 -55l27 33h228
l-114 -140q117 -127 117 -294v-30q0 -187 -162 -338q-155 -112 -314 -112h-14q-111 0 -214 52z" />
    <glyph glyph-name="ugrave" unicode="&#xf9;" horiz-adv-x="1052" 
d="M761 1125l-28 -108l-613 82l67 151zM439 -19q-136 7 -252 100q-189 151 -189 358v465h238v-462q0 -144 132 -224q49 -28 103 -28h20q87 0 154 67v647h238v-904h-238v62q-117 -81 -206 -81z" />
    <glyph glyph-name="uacute" unicode="&#xfa;" horiz-adv-x="1052" 
d="M694 1250l67 -151l-613 -82l-28 108zM439 -19q-136 7 -252 100q-189 151 -189 358v465h238v-462q0 -144 132 -224q49 -28 103 -28h20q87 0 154 67v647h238v-904h-238v62q-117 -81 -206 -81z" />
    <glyph glyph-name="ucircumflex" unicode="&#xfb;" horiz-adv-x="1048" 
d="M434 1087l-294 -71l-16 108l319 125l1 -5l313 -123l-16 -108zM439 -19q-136 7 -252 100q-189 151 -189 358v465h238v-462q0 -144 132 -224q49 -28 103 -28h20q87 0 154 67v647h238v-904h-238v62q-117 -81 -206 -81z" />
    <glyph glyph-name="udieresis" unicode="&#xfc;" horiz-adv-x="1052" 
d="M439 -19q-136 7 -252 100q-189 151 -189 358v465h238v-462q0 -144 132 -224q49 -28 103 -28h20q87 0 154 67v647h238v-904h-238v62q-117 -81 -206 -81zM101 1144q0 112 106 112q105 0 105 -112t-105 -112q-106 0 -106 112zM587 1144q0 112 106 112q105 0 105 -112
t-105 -112q-106 0 -106 112z" />
    <glyph glyph-name="yacute" unicode="&#xfd;" horiz-adv-x="1101" 
d="M754 1250l67 -151l-613 -82l-28 108zM393 -21l-393 925h247l274 -659l251 659h228l-493 -1173q-82 -104 -154 -137q-63 -29 -191 -29q-19 0 -40 1v188q16 -1 31 -1q78 0 136 35q68 62 104 191z" />
    <glyph glyph-name="thorn" unicode="&#xfe;" horiz-adv-x="1048" 
d="M414 182q43 0 104 25q140 84 140 273q0 47 -31 119q-79 132 -213 132h-2q-48 0 -94 -23.5t-76 -52.5v-391q0 -23 45 -51.5t127 -30.5zM426 924q173 0 308 -112q162 -151 162 -338q0 -253 -207 -404q-123 -82 -252 -82q-86 0 -195 72v-399h-238v1589h238v-391
q97 65 184 65z" />
    <glyph glyph-name="ydieresis" unicode="&#xff;" horiz-adv-x="1101" 
d="M393 -21l-393 925h247l274 -659l251 659h228l-493 -1173q-82 -104 -154 -137q-63 -29 -191 -29q-19 0 -40 1v188q16 -1 31 -1q78 0 136 35q68 62 104 191zM171 1144q0 112 106 112q105 0 105 -112t-105 -112q-106 0 -106 112zM657 1144q0 112 106 112q105 0 105 -112
t-105 -112q-106 0 -106 112z" />
    <glyph glyph-name="emdash" unicode="&#x2014;" horiz-adv-x="1603" 
d="M5 445v177h1515l1 -1v-176h-1516z" />
    <glyph glyph-name="quoteleft" unicode="&#x2018;" horiz-adv-x="394" 
d="M128 763q-8 -1 -16 -1q-112 0 -112 199v25q7 218 262 218h12q-132 -64 -132 -140q0 -19 9 -40h5q107 0 107 -136q0 -126 -119 -126q-8 0 -16 1z" />
    <glyph glyph-name="quoteright" unicode="&#x2019;" horiz-adv-x="401" 
d="M146 1203q8 1 16 1q112 0 112 -199v-24q-7 -219 -262 -219h-12q132 64 132 140q0 19 -9 40h-5q-107 0 -107 136q0 126 119 126q8 0 16 -1z" />
    <glyph glyph-name="quotesinglbase" unicode="&#x201a;" horiz-adv-x="397" 
d="M150 265q8 1 16 1q112 0 112 -199v-24q-7 -219 -262 -219h-12q132 64 132 140q0 19 -9 40h-5q-107 0 -107 136q0 126 119 126q8 0 16 -1z" />
    <glyph glyph-name="quotedblleft" unicode="&#x201c;" horiz-adv-x="805" 
d="M507 763q-8 -1 -16 -1q-112 0 -112 199v25q7 218 262 218h12q-132 -64 -132 -140q0 -19 9 -40h5q107 0 107 -136q0 -126 -119 -126q-8 0 -16 1zM128 763q-8 -1 -16 -1q-112 0 -112 199v25q7 218 262 218h12q-132 -64 -132 -140q0 -19 9 -40h5q107 0 107 -136
q0 -126 -119 -126q-8 0 -16 1z" />
    <glyph glyph-name="quotedblright" unicode="&#x201d;" horiz-adv-x="805" 
d="M146 1203q8 1 16 1q112 0 112 -199v-24q-7 -219 -262 -219h-12q132 64 132 140q0 19 -9 40h-5q-107 0 -107 136q0 126 119 126q8 0 16 -1zM525 1203q8 1 16 1q112 0 112 -199v-24q-7 -219 -262 -219h-12q132 64 132 140q0 19 -9 40h-5q-107 0 -107 136q0 126 119 126
q8 0 16 -1z" />
    <glyph glyph-name="quotedblbase" unicode="&#x201e;" horiz-adv-x="805" 
d="M142 266q8 1 16 1q112 0 112 -199v-24q-7 -219 -262 -219h-12q132 64 132 140q0 19 -9 40h-5q-107 0 -107 136q0 126 119 126q8 0 16 -1zM521 266q8 1 16 1q112 0 112 -199v-24q-7 -219 -262 -219h-12q132 64 132 140q0 19 -9 40h-5q-107 0 -107 136q0 126 119 126
q8 0 16 -1z" />
    <glyph glyph-name="bullet" unicode="&#x2022;" horiz-adv-x="751" 
d="M2 618q0 123 87 209t210 86q122 0 208.5 -86.5t86.5 -208.5t-87.5 -209.5t-209.5 -87.5q-123 0 -209 87t-86 210z" />
    <glyph glyph-name="Euro" unicode="&#x20ac;" horiz-adv-x="1199" 
d="M382 381q46 -94 143 -156q62 -34 123 -34h3q159 0 248 171l183 -133q-30 -53 -75 -102q-175 -147 -354 -147h-16q-196 0 -370 169q-93 102 -134 232h-133v140h106q-4 38 -4 78q0 17 1 34h-103v140h123q52 208 240 346q146 89 287 89q145 0 306 -108q76 -65 118 -129
l-173 -138q-40 72 -120 127q-76 37 -130 37q-161 0 -265 -181q-9 -22 -16 -43h255v-140h-284q-1 -11 -1 -21v-36q0 -28 3 -55h282v-140h-243z" />
    <glyph glyph-name="afii61352" unicode="&#x2116;" horiz-adv-x="1152" 
d="M187 613l-1 -613h-186v1200h121l212 -641l-2 641h186v-1200h-120zM787 1216q63 0 132 -82q101 -151 101 -374v-30q0 -187 -79 -338q-75 -112 -153 -112h-6q-86 0 -161 129q-71 138 -71 343q0 250 113 396q63 68 124 68zM718 762v-28q0 -178 40 -269q14 -25 27 -25
q37 0 59 148q8 81 8 134v43q0 169 -38 263q-17 29 -29 29q-35 0 -57 -139q-10 -84 -10 -156zM785 213q102 0 102 -108q0 -109 -102 -109t-102 109q0 108 102 108z" />
    <glyph glyph-name="trademark" unicode="&#x2122;" horiz-adv-x="1345" 
d="M335 1051v-536h-167v536h-168v129h502v-130zM864 664l-198 272l1 -420l-135 -1v665h138l201 -294l199 294h137v-665h-158v421z" />
    <glyph glyph-name="uniF001" unicode="&#xf001;" horiz-adv-x="1073" 
 />
    <glyph glyph-name="uniF001" unicode="&#xfb01;" horiz-adv-x="1073" 
 />
    <glyph glyph-name="uniF002" unicode="&#xf002;" horiz-adv-x="1081" 
 />
    <glyph glyph-name="uniF002" unicode="&#xfb02;" horiz-adv-x="1081" 
 />
    </font>
</defs>
</svg>
